<?xml version="1.0" encoding="utf-8"?>
<!-- Generator: Adobe Illustrator 23.0.1, SVG Export Plug-In . SVG Version: 6.00 Build 0)  -->
<svg version="1.1" id="图层_1" xmlns="http://www.w3.org/2000/svg" xmlns:xlink="http://www.w3.org/1999/xlink" x="0px" y="0px"
	 viewBox="0 0 110 32" style="enable-background:new 0 0 110 32;" xml:space="preserve">
<style type="text/css">
	.st0{fill:#040402;}
	.st1{fill:#00A99D;}
</style>
<g>
	<g>
		<path class="st0" d="M4.3,12.2c-0.5,0-1-0.1-1.4-0.2c-0.5-0.1-0.9-0.4-1.2-0.6c-0.4-0.3-0.7-0.6-1-1C0.4,9.9,0.2,9.4,0,8.9
			l2.1-0.8c0.2,0.6,0.4,1.1,0.8,1.5s0.9,0.6,1.5,0.6c0.2,0,0.4,0,0.7-0.1s0.4-0.1,0.6-0.3C5.8,9.6,5.9,9.5,6,9.3s0.2-0.4,0.2-0.6
			c0-0.2,0-0.4-0.1-0.6C6,8,5.8,7.8,5.7,7.6C5.5,7.5,5.2,7.3,5,7.2C4.7,7.1,4.3,6.9,3.9,6.8L3.2,6.5c-0.3-0.1-0.6-0.2-1-0.4
			C1.9,5.9,1.6,5.7,1.3,5.4C1.1,5.1,0.9,4.8,0.7,4.5C0.5,4.1,0.4,3.7,0.4,3.3c0-0.5,0.1-0.9,0.3-1.3s0.4-0.7,0.8-1
			c0.3-0.3,0.7-0.5,1.2-0.7C3.1,0.1,3.6,0,4.2,0c0.6,0,1.1,0.1,1.5,0.2s0.8,0.4,1.1,0.6s0.5,0.5,0.7,0.8c0.2,0.3,0.3,0.6,0.4,0.8
			L6,3.3C5.9,3,5.7,2.7,5.4,2.4C5.1,2.2,4.7,2,4.2,2C3.8,2,3.4,2.1,3,2.3C2.7,2.6,2.6,2.9,2.6,3.2c0,0.3,0.2,0.6,0.5,0.9
			c0.3,0.2,0.8,0.5,1.5,0.7l0.7,0.2c0.5,0.2,0.9,0.4,1.3,0.6s0.7,0.5,1,0.8C7.8,6.7,8,7,8.1,7.4c0.1,0.4,0.2,0.8,0.2,1.3
			c0,0.6-0.1,1.1-0.4,1.6c-0.2,0.4-0.6,0.8-0.9,1.1S6.2,11.8,5.7,12C5.3,12.1,4.8,12.2,4.3,12.2z"/>
		<path class="st0" d="M16.6,11.9V2.3h-3.3V0.3h8.7v2.1h-3.3v9.6H16.6z"/>
		<path class="st0" d="M27.8,0.3h4.3c0.6,0,1.1,0.1,1.6,0.3c0.5,0.2,0.9,0.4,1.2,0.8s0.6,0.7,0.8,1.2S36,3.4,36,3.9
			c0,0.4-0.1,0.8-0.2,1.1S35.5,5.7,35.2,6c-0.2,0.3-0.5,0.5-0.8,0.7c-0.3,0.2-0.6,0.4-1,0.5l0,0.1l3.1,4.5v0.1h-2.5l-3-4.4h-1v4.4
			h-2.2L27.8,0.3L27.8,0.3z M32.1,5.5c0.5,0,0.9-0.2,1.2-0.5c0.3-0.3,0.5-0.7,0.5-1.2c0-0.2,0-0.4-0.1-0.6c-0.1-0.2-0.2-0.4-0.3-0.5
			S33,2.5,32.8,2.4c-0.2-0.1-0.5-0.1-0.7-0.1H30v3.2L32.1,5.5L32.1,5.5z"/>
		<path class="st0" d="M45.5,0.3H48l4.4,11.7H50l-1-2.8h-4.5l-1,2.8h-2.4L45.5,0.3z M48.3,7.1l-1-2.9l-0.4-1.4h-0.1l-0.4,1.4l-1,2.9
			H48.3z"/>
		<path class="st0" d="M57.9,0.3h2.2v11.7h-2.2V0.3z"/>
		<path class="st0" d="M72,5.5h5.7c0,0.1,0.1,0.3,0.1,0.5c0,0.2,0,0.4,0,0.6c0,0.8-0.1,1.5-0.3,2.1c-0.2,0.7-0.6,1.2-1.1,1.8
			c-0.5,0.6-1.2,1-1.9,1.3c-0.7,0.3-1.6,0.5-2.5,0.5c-0.8,0-1.7-0.1-2.4-0.5c-0.8-0.3-1.4-0.7-2-1.3c-0.6-0.5-1-1.2-1.3-1.9
			S65.9,7,65.9,6.1s0.2-1.7,0.5-2.4c0.3-0.7,0.8-1.4,1.3-1.9s1.2-1,2-1.3C70.4,0.2,71.2,0,72.1,0c0.9,0,1.8,0.2,2.5,0.5
			s1.4,0.8,1.9,1.4L75,3.3c-0.4-0.4-0.8-0.7-1.3-0.9c-0.5-0.2-1-0.3-1.7-0.3c-0.5,0-1,0.1-1.5,0.3c-0.5,0.2-0.9,0.5-1.2,0.8
			c-0.4,0.3-0.6,0.8-0.9,1.3c-0.2,0.5-0.3,1.1-0.3,1.7c0,0.6,0.1,1.2,0.3,1.7s0.5,0.9,0.9,1.3c0.4,0.4,0.8,0.6,1.3,0.8
			c0.5,0.2,1,0.3,1.5,0.3c0.6,0,1.1-0.1,1.6-0.3s0.8-0.4,1.1-0.7c0.2-0.2,0.4-0.4,0.6-0.7c0.2-0.3,0.3-0.6,0.4-1H72L72,5.5L72,5.5z"
			/>
		<path class="st0" d="M83.9,0.3h2.2v4.7H91V0.3h2.2v11.7H91V7h-4.9v4.9h-2.2V0.3z"/>
		<path class="st0" d="M102.2,11.9V2.3h-3.2V0.3h8.7v2.1h-3.3v9.6H102.2z"/>
		<path class="st0" d="M4.3,31.7c-0.5,0-1-0.1-1.4-0.2c-0.5-0.1-0.9-0.4-1.2-0.6c-0.4-0.3-0.7-0.6-1-1C0.4,29.5,0.2,29,0,28.4
			l2.1-0.8c0.2,0.6,0.4,1.1,0.8,1.5c0.4,0.4,0.9,0.6,1.5,0.6c0.2,0,0.4,0,0.7-0.1s0.4-0.1,0.6-0.3s0.3-0.3,0.4-0.4s0.2-0.4,0.2-0.6
			c0-0.2,0-0.4-0.1-0.6c-0.1-0.2-0.2-0.3-0.4-0.5c-0.2-0.1-0.4-0.3-0.7-0.4c-0.3-0.1-0.6-0.3-1.1-0.4l-0.7-0.3
			c-0.3-0.1-0.6-0.3-1-0.4s-0.6-0.4-0.9-0.7S0.9,24.4,0.7,24c-0.2-0.4-0.2-0.8-0.2-1.2c0-0.5,0.1-0.9,0.3-1.3c0.2-0.4,0.4-0.7,0.8-1
			c0.3-0.3,0.7-0.5,1.2-0.7s1-0.2,1.5-0.2c0.6,0,1.1,0.1,1.5,0.2s0.8,0.4,1.1,0.6s0.5,0.5,0.7,0.8C7.7,21.5,7.9,21.8,8,22L6,22.8
			c-0.1-0.3-0.3-0.6-0.6-0.9c-0.3-0.3-0.7-0.4-1.2-0.4c-0.5,0-0.9,0.1-1.2,0.3s-0.5,0.5-0.5,0.9c0,0.4,0.2,0.6,0.5,0.9
			c0.3,0.2,0.8,0.5,1.5,0.7l0.7,0.2c0.5,0.2,0.9,0.4,1.3,0.6c0.4,0.2,0.7,0.5,1,0.8c0.3,0.3,0.5,0.6,0.6,1c0.1,0.4,0.2,0.8,0.2,1.3
			c0,0.6-0.1,1.1-0.4,1.6c-0.2,0.4-0.6,0.8-0.9,1.1s-0.8,0.5-1.3,0.6C5.3,31.7,4.8,31.7,4.3,31.7z"/>
		<path class="st0" d="M14.3,19.8h2.2v4.7h4.9v-4.7h2.2v11.7h-2.2v-4.9h-4.9v4.9h-2.2C14.3,31.5,14.3,19.8,14.3,19.8z"/>
		<path class="st0" d="M35.5,31.7c-0.9,0-1.7-0.2-2.4-0.5c-0.7-0.3-1.4-0.8-1.9-1.3s-1-1.2-1.3-1.9c-0.3-0.7-0.5-1.5-0.5-2.4
			s0.1-1.6,0.5-2.4c0.3-0.7,0.7-1.4,1.3-1.9c0.5-0.5,1.2-1,1.9-1.3c0.7-0.3,1.5-0.5,2.4-0.5s1.7,0.2,2.4,0.5
			c0.7,0.3,1.4,0.8,1.9,1.3s1,1.2,1.3,1.9c0.3,0.7,0.5,1.5,0.5,2.4s-0.2,1.6-0.5,2.4s-0.7,1.4-1.3,1.9c-0.5,0.5-1.2,1-1.9,1.3
			C37.2,31.6,36.4,31.7,35.5,31.7z M35.5,29.6c0.5,0,1-0.1,1.5-0.3c0.5-0.2,0.9-0.5,1.2-0.8c0.3-0.4,0.6-0.8,0.8-1.3s0.3-1,0.3-1.6
			s-0.1-1.1-0.3-1.6c-0.2-0.5-0.5-0.9-0.8-1.3c-0.3-0.4-0.8-0.6-1.2-0.8c-0.5-0.2-1-0.3-1.5-0.3s-1,0.1-1.5,0.3
			c-0.5,0.2-0.9,0.5-1.2,0.8c-0.3,0.4-0.6,0.8-0.8,1.3c-0.2,0.5-0.3,1-0.3,1.6s0.1,1.1,0.3,1.6c0.2,0.5,0.5,0.9,0.8,1.3
			c0.3,0.4,0.8,0.6,1.2,0.8C34.5,29.5,35,29.6,35.5,29.6z"/>
		<path class="st0" d="M64.9,31.5v-9.6h-3.3v-2.1h8.7v2.1h-3.3v9.6H64.9z"/>
		<path class="st0" d="M78.3,21.9v2.7h4.7v2.1h-4.7v2.7h5.2v2.1h-7.4V19.8h7.4v2.1H78.3z"/>
		<path class="st0" d="M89.7,19.8h4.2c0.6,0,1.1,0.1,1.6,0.3c0.5,0.2,0.9,0.4,1.2,0.8c0.3,0.3,0.6,0.7,0.8,1.2s0.3,0.9,0.3,1.5
			c0,0.4-0.1,0.8-0.2,1.1s-0.3,0.6-0.5,0.9s-0.5,0.5-0.8,0.7c-0.3,0.2-0.6,0.4-1,0.5l0,0.1l3.1,4.5v0.1h-2.5l-3-4.4h-1v4.4h-2.2
			V19.8z M93.9,25.1c0.5,0,0.9-0.1,1.2-0.5c0.3-0.3,0.5-0.7,0.5-1.2c0-0.2,0-0.4-0.1-0.6c-0.1-0.2-0.2-0.4-0.3-0.5s-0.3-0.3-0.5-0.4
			c-0.2-0.1-0.4-0.1-0.7-0.1h-2.1v3.2L93.9,25.1C93.9,25.1,93.9,25.1,93.9,25.1z"/>
	</g>
	<g>
		<path class="st0" d="M52.6,29.7c-0.2,0-0.5,0.1-0.7,0.1c-1.1,0-2.1-0.4-2.8-1.2s-1.2-1.8-1.2-2.8c0-1.1,0.4-2.1,1.2-2.8
			s1.8-1.2,2.8-1.2c1.1,0,2.1,0.4,2.8,1.2s1.2,1.8,1.2,2.8c0,0.4,0,0.7-0.2,1.1l1.7,1.9c0.5-0.9,0.7-1.9,0.7-2.9
			c0-3.5-2.8-6.3-6.3-6.3s-6.3,2.8-6.3,6.3s2.8,6.3,6.3,6.3c0.8,0,1.7-0.2,2.4-0.5L52.6,29.7z"/>
		<g>
			<path class="st1" d="M46.9,20.7c0.3-0.3,0.6-0.6,1-0.8l-0.2-0.2h-2.4l-0.1,0.1l1.3,1.5C46.6,21,46.7,20.9,46.9,20.7z"/>
			<path class="st1" d="M56.1,31.8h2.6l-7.8-8.6c-0.3,0.1-0.6,0.3-0.9,0.6c-0.2,0.2-0.4,0.4-0.5,0.7L56.1,31.8z"/>
		</g>
	</g>
</g>
</svg>
