<?xml version="1.0" encoding="utf-8"?>
<!-- Generator: Adobe Illustrator 23.0.1, SVG Export Plug-In . SVG Version: 6.00 Build 0)  -->
<svg version="1.1" id="图层_1" xmlns="http://www.w3.org/2000/svg" xmlns:xlink="http://www.w3.org/1999/xlink" x="0px" y="0px"
	 viewBox="0 0 35 32" style="enable-background:new 0 0 35 32;" xml:space="preserve">
<style type="text/css">
	.st0{fill:#040402;}
	.st1{fill:#00A99D;}
</style>
<g>
	<path class="st0" d="M19,26c-0.6,0.1-1.2,0.1-1.8,0.1c-2.7,0-5.3-1.1-7.2-3S7,18.7,7,16c0-2.7,1.1-5.3,3-7.2s4.5-3,7.2-3
		c2.7,0,5.3,1.1,7.2,3s3,4.5,3,7.2c0,1-0.1,1.9-0.4,2.8l4.3,4.8c1.2-2.2,1.9-4.8,1.9-7.5c0-8.8-7.2-16-16-16s-16,7.2-16,16
		s7.2,16,16,16c2.1,0,4.2-0.4,6.1-1.2L19,26z"/>
	<g>
		<path class="st1" d="M4.4,3.1C5.2,2.4,6,1.7,6.9,1.1L6.4,0.5H0.2L0,0.6l3.4,3.7C3.7,3.9,4,3.5,4.4,3.1z"/>
		<path class="st1" d="M28,31.4h6.6l-20-21.9c-0.8,0.4-1.6,0.9-2.3,1.5c-0.5,0.5-0.9,1.1-1.3,1.8L28,31.4z"/>
	</g>
</g>
</svg>
