<?xml version="1.0" standalone="no"?>
<!DOCTYPE svg PUBLIC "-//W3C//DTD SVG 20010904//EN"
 "http://www.w3.org/TR/2001/REC-SVG-20010904/DTD/svg10.dtd">
<svg version="1.0" xmlns="http://www.w3.org/2000/svg"
 width="700.000000pt" height="700.000000pt" viewBox="0 0 700.000000 700.000000"
 preserveAspectRatio="xMidYMid meet">
<metadata>
Created by potrace 1.11, written by Peter Selinger 2001-2013
</metadata>
<g transform="translate(0.000000,700.000000) scale(0.100000,-0.100000)"
fill="#000000" stroke="none">
<path d="M3468 6746 c-1 -2 -68 -6 -148 -10 -80 -3 -156 -8 -170 -11 -14 -3
-50 -7 -80 -10 -229 -23 -591 -121 -845 -230 -459 -196 -885 -508 -1195 -875
-30 -36 -57 -67 -60 -70 -33 -30 -196 -268 -283 -412 -57 -94 -157 -302 -210
-433 -110 -275 -185 -587 -215 -900 -14 -147 -5 -675 13 -705 1 -3 6 -32 9
-65 4 -33 9 -67 11 -75 2 -8 7 -31 10 -50 41 -241 140 -546 260 -795 265 -555
696 -1037 1202 -1350 60 -36 115 -70 123 -75 109 -67 381 -190 558 -251 115
-39 359 -103 442 -114 24 -4 47 -8 50 -10 9 -6 209 -31 325 -40 110 -10 457
-4 550 9 22 3 67 8 100 11 85 9 289 50 425 86 113 30 358 114 373 128 7 7 -3
22 -71 96 -20 22 -77 85 -127 140 -49 55 -92 102 -95 105 -3 3 -43 48 -90 100
-47 52 -92 101 -101 110 -9 8 -56 60 -105 115 -49 55 -98 109 -109 120 -11 12
-51 56 -90 99 l-69 78 -56 -6 c-30 -3 -84 -9 -120 -13 -124 -14 -401 -7 -500
12 -14 3 -41 8 -60 11 -148 26 -376 99 -509 164 -45 22 -84 40 -87 40 -3 0
-25 14 -49 30 -24 17 -46 30 -50 30 -9 0 -153 98 -205 139 -158 126 -304 279
-421 441 -44 61 -136 222 -177 310 -77 165 -140 364 -168 529 -3 18 -8 43 -10
55 -24 121 -23 461 1 601 70 402 222 738 469 1034 41 49 182 188 246 242 268
229 598 384 966 454 205 39 500 41 709 4 665 -116 1225 -538 1516 -1139 49
-101 123 -293 133 -348 3 -15 12 -54 21 -87 72 -278 68 -680 -10 -968 -12 -47
-13 -61 -3 -71 7 -7 49 -53 93 -102 44 -48 127 -140 185 -204 58 -63 121 -133
140 -154 56 -63 133 -148 160 -176 14 -15 43 -47 65 -71 22 -24 80 -89 130
-143 l89 -99 27 57 c15 31 31 62 36 68 13 17 99 223 130 313 28 80 82 257 89
295 3 14 11 50 19 80 8 30 21 100 30 155 9 55 18 111 20 125 2 14 7 57 11 95
3 39 8 86 10 105 6 58 5 401 -1 465 -3 33 -8 85 -10 115 -3 30 -7 69 -10 85
-3 17 -7 46 -10 65 -2 19 -7 46 -10 60 -3 14 -8 41 -11 60 -3 19 -19 89 -35
155 -105 428 -296 830 -568 1190 -25 33 -48 62 -51 65 -3 3 -37 43 -77 90
-117 137 -321 332 -463 440 -25 19 -47 37 -50 41 -12 15 -253 171 -337 218
-138 78 -324 165 -458 215 -114 42 -331 110 -385 120 -14 2 -47 9 -75 16 -75
17 -202 38 -275 46 -36 3 -68 8 -71 10 -3 2 -80 6 -170 9 -90 4 -169 8 -176
10 -6 2 -13 2 -15 1z"/>
<path d="M17 6622 c-15 -16 -13 -20 21 -57 20 -22 80 -87 132 -145 52 -58 102
-112 110 -120 8 -8 55 -60 105 -115 49 -55 113 -125 141 -155 28 -30 71 -78
95 -107 24 -28 49 -53 55 -56 6 -3 39 28 73 68 144 169 486 478 611 552 16 9
31 22 34 29 2 6 -18 37 -46 68 l-50 56 -632 0 c-593 0 -634 -1 -649 -18z"/>
<path d="M2861 4769 c-165 -86 -262 -159 -397 -300 -62 -65 -148 -180 -190
-255 -40 -72 -42 -62 21 -130 32 -34 189 -205 205 -224 8 -10 53 -59 100 -110
47 -51 92 -100 100 -110 35 -40 307 -339 320 -350 3 -3 25 -27 49 -55 45 -51
203 -225 231 -255 23 -24 291 -320 325 -359 17 -19 40 -43 51 -55 12 -12 72
-77 134 -146 145 -160 275 -303 320 -351 19 -20 50 -55 69 -76 18 -21 72 -80
119 -131 47 -51 94 -102 104 -115 11 -12 54 -60 96 -106 42 -46 82 -89 87 -95
34 -38 217 -239 251 -276 66 -72 92 -100 168 -185 39 -43 88 -97 109 -119 21
-22 66 -71 100 -110 34 -38 73 -82 87 -96 14 -15 61 -66 105 -115 44 -49 103
-114 131 -145 28 -30 65 -71 82 -90 l30 -35 661 0 c364 0 661 3 661 6 0 6 -7
15 -109 125 -99 108 -225 246 -244 268 -10 11 -37 41 -60 66 -23 25 -62 68
-87 95 -83 93 -225 248 -254 279 -15 17 -57 63 -93 102 -35 40 -76 85 -91 101
-34 36 -185 202 -243 267 -52 58 -58 64 -174 192 -49 54 -117 128 -150 164
-33 36 -83 90 -110 120 -28 31 -91 100 -141 155 -50 55 -167 183 -259 285
-153 168 -237 261 -410 450 -81 89 -227 249 -245 270 -21 23 -173 191 -186
204 -8 9 -229 251 -364 400 -19 21 -44 49 -55 60 -11 12 -63 69 -115 126 -52
58 -101 112 -110 121 -8 8 -49 53 -90 99 -41 46 -88 98 -105 116 -16 17 -64
69 -105 115 -41 46 -98 108 -127 138 -28 31 -64 70 -80 88 l-28 31 -94 -49z"/>
</g>
</svg>
